# xmcd
#
# Track frame offsets: 
#        182
#        16560
#        33505
#        50887
#        64675
#        76057
#        90720
#        106065
#        121552
#        136762
#        151062
#        163232
#
# Disc length: 2357 seconds
#
# Revision: 3
# Processed by: cddbd v1.5.1PL0 Copyright (c) Steve Scherf et al.
# Submitted via: ExactAudioCopy v0.95a5
#
DISCID=8309330c
DTITLE=Samson and Gert - Samson
DYEAR=1991
DGENRE=kids
TTITLE0=Er zit meer in een liedje
TTITLE1=Ik wil niet in bad
TTITLE2=Slaapliedje
TTITLE3=Vissen
TTITLE4=Samsonrock
TTITLE5=Niet ver weg
TTITLE6=Feest vandaag
TTITLE7=Ik ben de sigaar
TTITLE8=De wijde wereld
TTITLE9=Verliefd zijn
TTITLE10=Neefje Kwik
TTITLE11=Samsonlied
EXTD=
EXTT0=
EXTT1=
EXTT2=
EXTT3=
EXTT4=
EXTT5=
EXTT6=
EXTT7=
EXTT8=
EXTT9=
EXTT10=
EXTT11=
PLAYORDER=
